<svg width="124" height="45" viewBox="0 0 124 45" fill="none" xmlns="http://www.w3.org/2000/svg">
<rect width="40" height="40" rx="6" fill="#AEDD88"/>
<path d="M57.304 10.7244H53.7528C53.7055 10.3598 53.6084 10.0308 53.4616 9.73722C53.3149 9.44366 53.1207 9.19271 52.8793 8.98438C52.6378 8.77604 52.3513 8.61742 52.0199 8.50852C51.6932 8.39489 51.331 8.33807 50.9332 8.33807C50.2277 8.33807 49.6193 8.51089 49.108 8.85653C48.6013 9.20218 48.2107 9.7017 47.9361 10.3551C47.6662 11.0085 47.5312 11.7992 47.5312 12.7273C47.5312 13.6932 47.6686 14.5028 47.9432 15.1562C48.2225 15.8049 48.6132 16.295 49.1151 16.6264C49.6217 16.9531 50.2206 17.1165 50.9119 17.1165C51.3002 17.1165 51.6529 17.0668 51.9702 16.9673C52.2921 16.8679 52.5739 16.7235 52.8153 16.5341C53.0616 16.34 53.2628 16.1056 53.419 15.831C53.58 15.5516 53.6913 15.2367 53.7528 14.8864L57.304 14.9077C57.2424 15.5516 57.0554 16.1861 56.7429 16.8111C56.4351 17.4361 56.0114 18.0066 55.4716 18.5227C54.9318 19.0341 54.2737 19.4413 53.4972 19.7443C52.7254 20.0473 51.84 20.1989 50.8409 20.1989C49.5246 20.1989 48.3456 19.91 47.304 19.3324C46.267 18.75 45.4479 17.9025 44.8466 16.7898C44.2453 15.6771 43.9446 14.3229 43.9446 12.7273C43.9446 11.1269 44.25 9.77036 44.8608 8.65767C45.4716 7.54498 46.2978 6.69981 47.3395 6.12216C48.3812 5.54451 49.5483 5.25568 50.8409 5.25568C51.7216 5.25568 52.536 5.37879 53.2841 5.625C54.0322 5.86648 54.6903 6.22159 55.2585 6.69034C55.8267 7.15436 56.2884 7.72491 56.6435 8.40199C56.9986 9.07907 57.2188 9.85322 57.304 10.7244ZM62.391 20.1847C61.695 20.1847 61.0771 20.0687 60.5373 19.8366C60.0022 19.5999 59.5785 19.2448 59.266 18.7713C58.9582 18.2931 58.8043 17.6941 58.8043 16.9744C58.8043 16.3684 58.9109 15.857 59.1239 15.4403C59.337 15.0237 59.6306 14.6851 60.0046 14.4247C60.3787 14.1643 60.8095 13.9678 61.2972 13.8352C61.7849 13.6979 62.3058 13.6056 62.8597 13.5582C63.48 13.5014 63.9795 13.4422 64.3583 13.3807C64.7371 13.3144 65.0117 13.2221 65.1822 13.1037C65.3574 12.9806 65.445 12.8078 65.445 12.5852V12.5497C65.445 12.1851 65.3195 11.9034 65.0685 11.7045C64.8176 11.5057 64.479 11.4062 64.0529 11.4062C63.5936 11.4062 63.2243 11.5057 62.945 11.7045C62.6656 11.9034 62.488 12.178 62.4123 12.5284L59.2092 12.4148C59.3039 11.7519 59.5477 11.16 59.9407 10.6392C60.3384 10.1136 60.8829 9.7017 61.5742 9.40341C62.2702 9.10038 63.1059 8.94886 64.0813 8.94886C64.7773 8.94886 65.4189 9.03172 66.006 9.19744C66.5932 9.35843 67.1045 9.59517 67.5401 9.90767C67.9757 10.2154 68.3119 10.5942 68.5487 11.044C68.7901 11.4938 68.9109 12.0076 68.9109 12.5852V20H65.6438V18.4801H65.5586C65.3645 18.8494 65.1159 19.1619 64.8129 19.4176C64.5146 19.6733 64.1618 19.8651 63.7546 19.9929C63.3522 20.1207 62.8976 20.1847 62.391 20.1847ZM63.4634 17.9119C63.8375 17.9119 64.1737 17.8362 64.4719 17.6847C64.775 17.5331 65.0165 17.3248 65.1964 17.0597C65.3763 16.7898 65.4663 16.4773 65.4663 16.1222V15.0852C65.3668 15.1373 65.2461 15.1847 65.104 15.2273C64.9667 15.2699 64.8152 15.3101 64.6495 15.348C64.4838 15.3859 64.3133 15.419 64.1381 15.4474C63.9629 15.4759 63.7949 15.5019 63.6339 15.5256C63.3072 15.5777 63.0278 15.6581 62.7958 15.767C62.5685 15.8759 62.3933 16.018 62.2702 16.1932C62.1519 16.3636 62.0927 16.5672 62.0927 16.804C62.0927 17.1638 62.2205 17.4384 62.4762 17.6278C62.7366 17.8172 63.0657 17.9119 63.4634 17.9119ZM71.0344 20V9.09091H74.408V11.0795H74.5217C74.7205 10.3598 75.0449 9.82481 75.4947 9.47443C75.9445 9.11932 76.4677 8.94176 77.0643 8.94176C77.2253 8.94176 77.391 8.9536 77.5614 8.97727C77.7319 8.99621 77.8905 9.02699 78.0373 9.0696V12.0881C77.8716 12.0312 77.6538 11.9863 77.3839 11.9531C77.1187 11.92 76.882 11.9034 76.6737 11.9034C76.2617 11.9034 75.89 11.9957 75.5586 12.1804C75.2319 12.3603 74.9738 12.6136 74.7844 12.9403C74.5998 13.2623 74.5075 13.6411 74.5075 14.0767V20H71.0344ZM82.9254 13.7784V20H79.4524V9.09091H82.755V11.0938H82.8757C83.1172 10.4261 83.5291 9.90294 84.1115 9.52415C84.6939 9.14062 85.3875 8.94886 86.1925 8.94886C86.9595 8.94886 87.6248 9.12169 88.1882 9.46733C88.7564 9.80824 89.1967 10.2865 89.5092 10.902C89.8265 11.5128 89.9827 12.2277 89.978 13.0469V20H86.505V13.7287C86.5097 13.1226 86.3558 12.6491 86.0433 12.3082C85.7356 11.9673 85.3071 11.7969 84.7578 11.7969C84.3932 11.7969 84.0713 11.8774 83.7919 12.0384C83.5173 12.1946 83.3042 12.4195 83.1527 12.7131C83.0059 13.0066 82.9302 13.3617 82.9254 13.7784ZM97.2276 20.206C96.0865 20.206 95.1017 19.9811 94.2731 19.5312C93.4492 19.0767 92.8147 18.4304 92.3697 17.5923C91.9293 16.7495 91.7092 15.7481 91.7092 14.5881C91.7092 13.4612 91.9317 12.4763 92.3768 11.6335C92.8219 10.786 93.4492 10.1278 94.2589 9.65909C95.0685 9.18561 96.0226 8.94886 97.1211 8.94886C97.8976 8.94886 98.6078 9.0696 99.2518 9.31108C99.8957 9.55256 100.452 9.91004 100.921 10.3835C101.39 10.857 101.754 11.4418 102.015 12.1378C102.275 12.8291 102.405 13.6222 102.405 14.517V15.3835H92.9237V13.3665H99.1737C99.1689 12.9972 99.0813 12.6681 98.9109 12.3793C98.7404 12.0904 98.506 11.8655 98.2077 11.7045C97.9142 11.5388 97.5756 11.456 97.1921 11.456C96.8039 11.456 96.4558 11.5436 96.1481 11.7188C95.8403 11.8892 95.5965 12.1236 95.4165 12.4219C95.2366 12.7154 95.1419 13.0492 95.1325 13.4233V15.4759C95.1325 15.9209 95.2201 16.3116 95.3952 16.6477C95.5704 16.9792 95.819 17.2372 96.141 17.4219C96.4629 17.6065 96.8465 17.6989 97.2915 17.6989C97.5993 17.6989 97.8787 17.6562 98.1296 17.571C98.3806 17.4858 98.596 17.3603 98.7759 17.1946C98.9558 17.0289 99.0908 16.8253 99.1808 16.5838L102.37 16.6761C102.237 17.3911 101.946 18.0137 101.496 18.544C101.051 19.0696 100.466 19.4792 99.7418 19.7727C99.0174 20.0616 98.1793 20.206 97.2276 20.206ZM110.337 9.09091V11.6477H103.455V9.09091H110.337ZM104.896 6.47727H108.369V16.5696C108.369 16.7827 108.402 16.9555 108.469 17.0881C108.54 17.2159 108.642 17.3082 108.774 17.3651C108.907 17.4171 109.065 17.4432 109.25 17.4432C109.383 17.4432 109.522 17.4313 109.669 17.4077C109.821 17.3793 109.934 17.3556 110.01 17.3366L110.536 19.8438C110.37 19.8911 110.135 19.9503 109.832 20.0213C109.534 20.0923 109.177 20.1373 108.76 20.1562C107.946 20.1941 107.247 20.0994 106.665 19.8722C106.087 19.6402 105.644 19.2803 105.337 18.7926C105.034 18.3049 104.887 17.6918 104.896 16.9531V6.47727ZM44.1009 31V16.4545H50.1094C51.1984 16.4545 52.1383 16.6676 52.929 17.0938C53.7244 17.5152 54.3376 18.1046 54.7685 18.8622C55.1993 19.6151 55.4148 20.491 55.4148 21.4901C55.4148 22.4938 55.1946 23.3722 54.7543 24.125C54.3187 24.8731 53.696 25.4531 52.8864 25.8651C52.0767 26.277 51.1155 26.483 50.0028 26.483H46.2955V23.7131H49.3494C49.8797 23.7131 50.3224 23.6207 50.6776 23.4361C51.0374 23.2514 51.3097 22.9934 51.4943 22.6619C51.679 22.3258 51.7713 21.9351 51.7713 21.4901C51.7713 21.0402 51.679 20.652 51.4943 20.3253C51.3097 19.9938 51.0374 19.7382 50.6776 19.5582C50.3177 19.3783 49.875 19.2884 49.3494 19.2884H47.6165V31H44.1009ZM62.0252 31.206C60.8794 31.206 59.8945 30.9716 59.0707 30.5028C58.2515 30.0294 57.6194 29.3712 57.1744 28.5284C56.734 27.6809 56.5138 26.6984 56.5138 25.581C56.5138 24.4588 56.734 23.4763 57.1744 22.6335C57.6194 21.786 58.2515 21.1278 59.0707 20.6591C59.8945 20.1856 60.8794 19.9489 62.0252 19.9489C63.171 19.9489 64.1535 20.1856 64.9727 20.6591C65.7965 21.1278 66.4286 21.786 66.869 22.6335C67.314 23.4763 67.5366 24.4588 67.5366 25.581C67.5366 26.6984 67.314 27.6809 66.869 28.5284C66.4286 29.3712 65.7965 30.0294 64.9727 30.5028C64.1535 30.9716 63.171 31.206 62.0252 31.206ZM62.0465 28.5852C62.4632 28.5852 62.8159 28.4574 63.1048 28.2017C63.3936 27.946 63.6138 27.5909 63.7653 27.1364C63.9215 26.6818 63.9996 26.1562 63.9996 25.5597C63.9996 24.9536 63.9215 24.4233 63.7653 23.9688C63.6138 23.5142 63.3936 23.1591 63.1048 22.9034C62.8159 22.6477 62.4632 22.5199 62.0465 22.5199C61.6156 22.5199 61.2511 22.6477 60.9528 22.9034C60.6592 23.1591 60.4343 23.5142 60.2781 23.9688C60.1265 24.4233 60.0508 24.9536 60.0508 25.5597C60.0508 26.1562 60.1265 26.6818 60.2781 27.1364C60.4343 27.5909 60.6592 27.946 60.9528 28.2017C61.2511 28.4574 61.6156 28.5852 62.0465 28.5852ZM75.4734 20.0909V22.6477H68.5913V20.0909H75.4734ZM70.033 17.4773H73.506V27.5696C73.506 27.7827 73.5392 27.9555 73.6055 28.0881C73.6765 28.2159 73.7783 28.3082 73.9109 28.3651C74.0434 28.4171 74.2021 28.4432 74.3867 28.4432C74.5193 28.4432 74.659 28.4313 74.8058 28.4077C74.9573 28.3793 75.0709 28.3556 75.1467 28.3366L75.6722 30.8438C75.5065 30.8911 75.2721 30.9503 74.9691 31.0213C74.6708 31.0923 74.3133 31.1373 73.8967 31.1562C73.0823 31.1941 72.3839 31.0994 71.8015 30.8722C71.2238 30.6402 70.7811 30.2803 70.4734 29.7926C70.1703 29.3049 70.0236 28.6918 70.033 27.9531V17.4773ZM80.3207 31.1847C79.6246 31.1847 79.0067 31.0687 78.467 30.8366C77.9319 30.5999 77.5082 30.2448 77.1957 29.7713C76.8879 29.2931 76.734 28.6941 76.734 27.9744C76.734 27.3684 76.8406 26.857 77.0536 26.4403C77.2667 26.0237 77.5603 25.6851 77.9343 25.4247C78.3084 25.1643 78.7392 24.9678 79.2269 24.8352C79.7146 24.6979 80.2354 24.6056 80.7894 24.5582C81.4097 24.5014 81.9092 24.4422 82.288 24.3807C82.6668 24.3144 82.9414 24.2221 83.1119 24.1037C83.2871 23.9806 83.3746 23.8078 83.3746 23.5852V23.5497C83.3746 23.1851 83.2492 22.9034 82.9982 22.7045C82.7473 22.5057 82.4087 22.4062 81.9826 22.4062C81.5233 22.4062 81.154 22.5057 80.8746 22.7045C80.5953 22.9034 80.4177 23.178 80.342 23.5284L77.1388 23.4148C77.2335 22.7519 77.4774 22.16 77.8704 21.6392C78.2681 21.1136 78.8126 20.7017 79.5039 20.4034C80.1999 20.1004 81.0356 19.9489 82.011 19.9489C82.707 19.9489 83.3486 20.0317 83.9357 20.1974C84.5228 20.3584 85.0342 20.5952 85.4698 20.9077C85.9054 21.2154 86.2416 21.5942 86.4783 22.044C86.7198 22.4938 86.8406 23.0076 86.8406 23.5852V31H83.5735V29.4801H83.4883C83.2942 29.8494 83.0456 30.1619 82.7425 30.4176C82.4442 30.6733 82.0915 30.8651 81.6843 30.9929C81.2818 31.1207 80.8273 31.1847 80.3207 31.1847ZM81.3931 28.9119C81.7672 28.9119 82.1033 28.8362 82.4016 28.6847C82.7047 28.5331 82.9461 28.3248 83.1261 28.0597C83.306 27.7898 83.396 27.4773 83.396 27.1222V26.0852C83.2965 26.1373 83.1758 26.1847 83.0337 26.2273C82.8964 26.2699 82.7449 26.3101 82.5792 26.348C82.4135 26.3859 82.243 26.419 82.0678 26.4474C81.8926 26.4759 81.7246 26.5019 81.5636 26.5256C81.2369 26.5777 80.9575 26.6581 80.7255 26.767C80.4982 26.8759 80.323 27.018 80.1999 27.1932C80.0816 27.3636 80.0224 27.5672 80.0224 27.804C80.0224 28.1638 80.1502 28.4384 80.4059 28.6278C80.6663 28.8172 80.9954 28.9119 81.3931 28.9119ZM94.0494 35.3182C93.0124 35.3182 92.1246 35.1738 91.386 34.8849C90.6474 34.5961 90.0674 34.2008 89.646 33.6989C89.2246 33.197 88.9712 32.6288 88.886 31.9943L92.1744 31.8097C92.2359 32.0322 92.3496 32.2263 92.5153 32.392C92.6857 32.5578 92.9059 32.6856 93.1758 32.7756C93.4504 32.8655 93.7724 32.9105 94.1417 32.9105C94.7241 32.9105 95.2047 32.7685 95.5835 32.4844C95.967 32.205 96.1587 31.715 96.1587 31.0142V29.0966H96.038C95.9007 29.4328 95.6924 29.7334 95.413 29.9986C95.1336 30.2637 94.7856 30.4721 94.369 30.6236C93.957 30.7751 93.4835 30.8509 92.9485 30.8509C92.1531 30.8509 91.4239 30.6662 90.761 30.2969C90.1029 29.9228 89.5749 29.3452 89.1772 28.5639C88.7842 27.7779 88.5877 26.767 88.5877 25.5312C88.5877 24.2576 88.7913 23.2088 89.1985 22.3849C89.6057 21.5563 90.1384 20.9432 90.7965 20.5455C91.4594 20.1477 92.172 19.9489 92.9343 19.9489C93.5072 19.9489 93.9973 20.0483 94.4045 20.2472C94.8164 20.4413 95.1549 20.6922 95.4201 21C95.6853 21.3078 95.8865 21.6274 96.0238 21.9588H96.1232V20.0909H99.582V31.0426C99.582 31.9659 99.35 32.7448 98.886 33.3793C98.422 34.0137 97.7733 34.4943 96.94 34.821C96.1067 35.1525 95.1431 35.3182 94.0494 35.3182ZM94.1559 28.3224C94.5773 28.3224 94.9371 28.2112 95.2354 27.9886C95.5337 27.7661 95.7634 27.4465 95.9244 27.0298C96.0853 26.6132 96.1658 26.1136 96.1658 25.5312C96.1658 24.9394 96.0853 24.4304 95.9244 24.0043C95.7681 23.5734 95.5385 23.242 95.2354 23.0099C94.9371 22.7779 94.5773 22.6619 94.1559 22.6619C93.725 22.6619 93.3604 22.7803 93.0621 23.017C92.7638 23.2538 92.5366 23.5876 92.3803 24.0185C92.2288 24.4446 92.1531 24.9489 92.1531 25.5312C92.1531 26.1136 92.2312 26.6132 92.3874 27.0298C92.5437 27.4465 92.7686 27.7661 93.0621 27.9886C93.3604 28.2112 93.725 28.3224 94.1559 28.3224ZM106.896 31.206C105.754 31.206 104.77 30.9811 103.941 30.5312C103.117 30.0767 102.483 29.4304 102.038 28.5923C101.597 27.7495 101.377 26.7481 101.377 25.5881C101.377 24.4612 101.6 23.4763 102.045 22.6335C102.49 21.786 103.117 21.1278 103.927 20.6591C104.737 20.1856 105.691 19.9489 106.789 19.9489C107.566 19.9489 108.276 20.0696 108.92 20.3111C109.564 20.5526 110.12 20.91 110.589 21.3835C111.058 21.857 111.422 22.4418 111.683 23.1378C111.943 23.8291 112.073 24.6222 112.073 25.517V26.3835H102.592V24.3665H108.842C108.837 23.9972 108.749 23.6681 108.579 23.3793C108.408 23.0904 108.174 22.8655 107.876 22.7045C107.582 22.5388 107.244 22.456 106.86 22.456C106.472 22.456 106.124 22.5436 105.816 22.7188C105.508 22.8892 105.264 23.1236 105.085 23.4219C104.905 23.7154 104.81 24.0492 104.8 24.4233V26.4759C104.8 26.9209 104.888 27.3116 105.063 27.6477C105.238 27.9792 105.487 28.2372 105.809 28.4219C106.131 28.6065 106.514 28.6989 106.96 28.6989C107.267 28.6989 107.547 28.6562 107.798 28.571C108.049 28.4858 108.264 28.3603 108.444 28.1946C108.624 28.0289 108.759 27.8253 108.849 27.5838L112.038 27.6761C111.905 28.3911 111.614 29.0137 111.164 29.544C110.719 30.0696 110.134 30.4792 109.41 30.7727C108.685 31.0616 107.847 31.206 106.896 31.206ZM113.847 31V20.0909H117.221V22.0795H117.334C117.533 21.3598 117.857 20.8248 118.307 20.4744C118.757 20.1193 119.28 19.9418 119.877 19.9418C120.038 19.9418 120.203 19.9536 120.374 19.9773C120.544 19.9962 120.703 20.027 120.85 20.0696V23.0881C120.684 23.0312 120.466 22.9863 120.196 22.9531C119.931 22.92 119.694 22.9034 119.486 22.9034C119.074 22.9034 118.703 22.9957 118.371 23.1804C118.044 23.3603 117.786 23.6136 117.597 23.9403C117.412 24.2623 117.32 24.6411 117.32 25.0767V31H113.847Z" fill="#17456F"/>
<mask id="path-3-outside-1_82_1041" maskUnits="userSpaceOnUse" x="6" y="10" width="21" height="26" fill="black">
<rect fill="white" x="6" y="10" width="21" height="26"/>
<path d="M23.6133 26.7656C23.5495 27.7682 23.3307 28.6706 22.957 29.4727C22.5924 30.2747 22.1003 30.9583 21.4805 31.5234C20.8607 32.0885 20.1224 32.526 19.2656 32.8359C18.4089 33.1367 17.4609 33.2871 16.4219 33.2871C15.6016 33.2871 14.8405 33.1823 14.1387 32.9727C13.446 32.7539 12.8216 32.444 12.2656 32.043C11.7552 31.6693 11.2995 31.2181 10.8984 30.6895C10.5065 30.1608 10.1738 29.5775 9.90039 28.9395C9.63607 28.3014 9.43099 27.5996 9.28516 26.834C9.14844 26.0684 9.08008 25.2572 9.08008 24.4004V21.7207C9.08008 20.9186 9.14388 20.1576 9.27148 19.4375C9.39909 18.7083 9.59049 18.0339 9.8457 17.4141C10.1374 16.6576 10.5202 15.9831 10.9941 15.3906C11.4681 14.7982 12.0059 14.2969 12.6074 13.8867C13.1452 13.5404 13.7331 13.276 14.3711 13.0938C15.0182 12.9023 15.7109 12.8066 16.4492 12.8066C17.543 12.8066 18.5137 12.9616 19.3613 13.2715C20.2181 13.5814 20.9473 14.0234 21.5488 14.5977C22.1504 15.1719 22.6243 15.8737 22.9707 16.7031C23.3171 17.5326 23.5358 18.4668 23.627 19.5059H19.7988C19.7624 18.9134 19.6712 18.3939 19.5254 17.9473C19.3887 17.5007 19.1882 17.127 18.9238 16.8262C18.6504 16.5345 18.3086 16.3158 17.8984 16.1699C17.4974 16.015 17.0143 15.9375 16.4492 15.9375C16.1484 15.9375 15.8659 15.9694 15.6016 16.0332C15.3464 16.097 15.1094 16.1927 14.8906 16.3203C14.5169 16.5391 14.1979 16.8535 13.9336 17.2637C13.6784 17.6647 13.4733 18.1341 13.3184 18.6719C13.1999 19.0911 13.1133 19.556 13.0586 20.0664C13.0039 20.5677 12.9766 21.11 12.9766 21.6934V24.4004C12.9766 25.1934 13.0176 25.9043 13.0996 26.5332C13.1908 27.153 13.3275 27.6953 13.5098 28.1602C13.6374 28.4792 13.7878 28.7617 13.9609 29.0078C14.1432 29.2539 14.3483 29.459 14.5762 29.623C14.8223 29.8053 15.0957 29.9421 15.3965 30.0332C15.7064 30.1152 16.0482 30.1562 16.4219 30.1562C16.9232 30.1562 17.3743 30.0924 17.7754 29.9648C18.1764 29.8372 18.5182 29.6367 18.8008 29.3633C19.0833 29.0898 19.3066 28.7389 19.4707 28.3105C19.6348 27.8822 19.735 27.3672 19.7715 26.7656H23.6133Z"/>
</mask>
<path d="M23.6133 26.7656C23.5495 27.7682 23.3307 28.6706 22.957 29.4727C22.5924 30.2747 22.1003 30.9583 21.4805 31.5234C20.8607 32.0885 20.1224 32.526 19.2656 32.8359C18.4089 33.1367 17.4609 33.2871 16.4219 33.2871C15.6016 33.2871 14.8405 33.1823 14.1387 32.9727C13.446 32.7539 12.8216 32.444 12.2656 32.043C11.7552 31.6693 11.2995 31.2181 10.8984 30.6895C10.5065 30.1608 10.1738 29.5775 9.90039 28.9395C9.63607 28.3014 9.43099 27.5996 9.28516 26.834C9.14844 26.0684 9.08008 25.2572 9.08008 24.4004V21.7207C9.08008 20.9186 9.14388 20.1576 9.27148 19.4375C9.39909 18.7083 9.59049 18.0339 9.8457 17.4141C10.1374 16.6576 10.5202 15.9831 10.9941 15.3906C11.4681 14.7982 12.0059 14.2969 12.6074 13.8867C13.1452 13.5404 13.7331 13.276 14.3711 13.0938C15.0182 12.9023 15.7109 12.8066 16.4492 12.8066C17.543 12.8066 18.5137 12.9616 19.3613 13.2715C20.2181 13.5814 20.9473 14.0234 21.5488 14.5977C22.1504 15.1719 22.6243 15.8737 22.9707 16.7031C23.3171 17.5326 23.5358 18.4668 23.627 19.5059H19.7988C19.7624 18.9134 19.6712 18.3939 19.5254 17.9473C19.3887 17.5007 19.1882 17.127 18.9238 16.8262C18.6504 16.5345 18.3086 16.3158 17.8984 16.1699C17.4974 16.015 17.0143 15.9375 16.4492 15.9375C16.1484 15.9375 15.8659 15.9694 15.6016 16.0332C15.3464 16.097 15.1094 16.1927 14.8906 16.3203C14.5169 16.5391 14.1979 16.8535 13.9336 17.2637C13.6784 17.6647 13.4733 18.1341 13.3184 18.6719C13.1999 19.0911 13.1133 19.556 13.0586 20.0664C13.0039 20.5677 12.9766 21.11 12.9766 21.6934V24.4004C12.9766 25.1934 13.0176 25.9043 13.0996 26.5332C13.1908 27.153 13.3275 27.6953 13.5098 28.1602C13.6374 28.4792 13.7878 28.7617 13.9609 29.0078C14.1432 29.2539 14.3483 29.459 14.5762 29.623C14.8223 29.8053 15.0957 29.9421 15.3965 30.0332C15.7064 30.1152 16.0482 30.1562 16.4219 30.1562C16.9232 30.1562 17.3743 30.0924 17.7754 29.9648C18.1764 29.8372 18.5182 29.6367 18.8008 29.3633C19.0833 29.0898 19.3066 28.7389 19.4707 28.3105C19.6348 27.8822 19.735 27.3672 19.7715 26.7656H23.6133Z" fill="white"/>
<path d="M23.6133 26.7656L26.1082 26.9244L26.2774 24.2656H23.6133V26.7656ZM22.957 29.4727L20.6909 28.4169L20.686 28.4275L20.6811 28.4381L22.957 29.4727ZM21.4805 31.5234L23.1649 33.3708L21.4805 31.5234ZM19.2656 32.8359L20.0937 35.1948L20.1049 35.1909L20.116 35.1869L19.2656 32.8359ZM14.1387 32.9727L13.3858 35.3566L13.4045 35.3625L13.4232 35.3681L14.1387 32.9727ZM12.2656 32.043L10.7888 34.0601L10.7959 34.0654L10.8031 34.0705L12.2656 32.043ZM10.8984 30.6895L8.89016 32.1784L8.89837 32.1894L8.90671 32.2004L10.8984 30.6895ZM9.90039 28.9395L7.59075 29.8963L7.59655 29.9103L7.60253 29.9243L9.90039 28.9395ZM9.28516 26.834L6.82409 27.2735L6.82662 27.2876L6.82931 27.3018L9.28516 26.834ZM9.27148 19.4375L11.7331 19.8737L11.7341 19.8685L9.27148 19.4375ZM9.8457 17.4141L12.1574 18.3659L12.1682 18.3398L12.1783 18.3134L9.8457 17.4141ZM12.6074 13.8867L11.2537 11.7849L11.2262 11.8027L11.1991 11.8212L12.6074 13.8867ZM14.3711 13.0938L15.0579 15.4976L15.069 15.4944L15.0802 15.4911L14.3711 13.0938ZM19.3613 13.2715L18.5029 15.6195L18.511 15.6224L19.3613 13.2715ZM22.9707 16.7031L20.6638 17.6665L22.9707 16.7031ZM23.627 19.5059V22.0059H26.3559L26.1174 19.2874L23.627 19.5059ZM19.7988 19.5059L17.3035 19.6594L17.4479 22.0059H19.7988V19.5059ZM19.5254 17.9473L17.1349 18.6791L17.1417 18.7012L17.1489 18.7233L19.5254 17.9473ZM18.9238 16.8262L20.8017 15.1759L20.7752 15.1457L20.7477 15.1163L18.9238 16.8262ZM17.8984 16.1699L16.9974 18.5019L17.029 18.5141L17.0609 18.5255L17.8984 16.1699ZM15.6016 16.0332L15.015 13.603L15.0051 13.6054L14.9952 13.6078L15.6016 16.0332ZM14.8906 16.3203L13.6309 14.1609L13.6277 14.1628L14.8906 16.3203ZM13.9336 17.2637L11.8322 15.9094L11.8283 15.9154L11.8244 15.9215L13.9336 17.2637ZM13.3184 18.6719L10.9161 17.9797L10.9126 17.992L13.3184 18.6719ZM13.0586 20.0664L15.5439 20.3375L15.5444 20.3327L13.0586 20.0664ZM13.0996 26.5332L10.6206 26.8566L10.6232 26.8768L10.6262 26.8969L13.0996 26.5332ZM13.5098 28.1602L11.1823 29.0729L11.1854 29.0808L11.1886 29.0886L13.5098 28.1602ZM13.9609 29.0078L11.9164 30.4465L11.9339 30.4714L11.952 30.4959L13.9609 29.0078ZM14.5762 29.623L16.0642 27.6142L16.0507 27.6041L16.0369 27.5942L14.5762 29.623ZM15.3965 30.0332L14.6715 32.4258L14.7139 32.4386L14.7568 32.45L15.3965 30.0332ZM19.7715 26.7656V24.2656H17.4184L17.2761 26.6144L19.7715 26.7656ZM21.1183 26.6069C21.0716 27.3405 20.9166 27.9325 20.6909 28.4169L25.2231 30.5285C25.7449 29.4087 26.0273 28.1959 26.1082 26.9244L21.1183 26.6069ZM20.6811 28.4381C20.4494 28.9478 20.1531 29.3505 19.7961 29.676L23.1649 33.3708C24.0474 32.5662 24.7355 31.6016 25.2329 30.5072L20.6811 28.4381ZM19.7961 29.676C19.4388 30.0018 18.9905 30.2769 18.4153 30.485L20.116 35.1869C21.2543 34.7751 22.2826 34.1753 23.1649 33.3708L19.7961 29.676ZM18.4375 30.4771C17.8822 30.672 17.219 30.7871 16.4219 30.7871V35.7871C17.7029 35.7871 18.9355 35.6014 20.0937 35.1948L18.4375 30.4771ZM16.4219 30.7871C15.8152 30.7871 15.2979 30.7098 14.8542 30.5772L13.4232 35.3681C14.3831 35.6548 15.3879 35.7871 16.4219 35.7871V30.7871ZM14.8915 30.5887C14.4376 30.4454 14.0555 30.2515 13.7281 30.0154L10.8031 34.0705C11.5877 34.6365 12.4543 35.0624 13.3858 35.3566L14.8915 30.5887ZM13.7425 30.0258C13.4366 29.8019 13.1522 29.5238 12.8902 29.1785L8.90671 32.2004C9.4468 32.9124 10.0738 33.5366 10.7888 34.0601L13.7425 30.0258ZM12.9067 29.2006C12.6367 28.8364 12.3993 28.4237 12.1983 27.9547L7.60253 29.9243C7.94838 30.7312 8.37627 31.4852 8.89016 32.1784L12.9067 29.2006ZM12.21 27.9826C12.0187 27.5208 11.8589 26.9853 11.741 26.3662L6.82931 27.3018C7.00306 28.214 7.25342 29.0821 7.59075 29.8963L12.21 27.9826ZM11.7462 26.3945C11.6379 25.7877 11.5801 25.1245 11.5801 24.4004H6.58008C6.58008 25.3898 6.65901 26.349 6.82409 27.2735L11.7462 26.3945ZM11.5801 24.4004V21.7207H6.58008V24.4004H11.5801ZM11.5801 21.7207C11.5801 21.051 11.6334 20.4367 11.7331 19.8737L6.80984 19.0013C6.6544 19.8784 6.58008 20.7863 6.58008 21.7207H11.5801ZM11.7341 19.8685C11.8336 19.2996 11.978 18.8017 12.1574 18.3659L7.53401 16.4622C7.20303 17.266 6.96456 18.1171 6.80891 19.0065L11.7341 19.8685ZM12.1783 18.3134C12.3842 17.7795 12.643 17.3315 12.9463 16.9524L9.04197 13.8289C8.39737 14.6346 7.89054 15.5356 7.51306 16.5147L12.1783 18.3134ZM12.9463 16.9524C13.2716 16.5457 13.628 16.2167 14.0158 15.9523L11.1991 11.8212C10.3837 12.3771 9.66459 13.0506 9.04197 13.8289L12.9463 16.9524ZM13.9611 15.9885C14.285 15.7799 14.6469 15.615 15.0579 15.4976L13.6843 10.6899C12.8192 10.9371 12.0054 11.3008 11.2537 11.7849L13.9611 15.9885ZM15.0802 15.4911C15.4766 15.3738 15.9286 15.3066 16.4492 15.3066V10.3066C15.4933 10.3066 14.5599 10.4309 13.662 10.6964L15.0802 15.4911ZM16.4492 15.3066C17.3103 15.3066 17.9816 15.4289 18.5029 15.6195L20.2197 10.9235C19.0457 10.4943 17.7756 10.3066 16.4492 10.3066V15.3066ZM18.511 15.6224C19.0728 15.8256 19.4953 16.0936 19.8226 16.406L23.275 12.7893C22.3992 11.9533 21.3634 11.3371 20.2117 10.9205L18.511 15.6224ZM19.8226 16.406C20.1547 16.723 20.4396 17.1297 20.6638 17.6665L25.2776 15.7398C24.8091 14.6176 24.1461 13.6208 23.275 12.7893L19.8226 16.406ZM20.6638 17.6665C20.8966 18.224 21.0643 18.9013 21.1365 19.7243L26.1174 19.2874C26.0073 18.0323 25.7376 16.8411 25.2776 15.7398L20.6638 17.6665ZM23.627 17.0059H19.7988V22.0059H23.627V17.0059ZM22.2941 19.3523C22.2479 18.6009 22.1282 17.8642 21.9019 17.1713L17.1489 18.7233C17.2143 18.9236 17.2769 19.2259 17.3035 19.6594L22.2941 19.3523ZM21.9159 17.2155C21.6925 16.4858 21.3359 15.7837 20.8017 15.1759L17.0459 18.4765C17.0459 18.4765 17.0464 18.477 17.0473 18.4782C17.0483 18.4794 17.0497 18.4813 17.0516 18.4841C17.0554 18.4896 17.0616 18.4993 17.0696 18.5141C17.0855 18.5437 17.1095 18.5961 17.1349 18.6791L21.9159 17.2155ZM20.7477 15.1163C20.1779 14.5086 19.4876 14.0816 18.736 13.8144L17.0609 18.5255C17.0808 18.5325 17.0943 18.5385 17.1026 18.5425C17.1108 18.5465 17.1145 18.5489 17.1148 18.549C17.115 18.5492 17.113 18.5479 17.1097 18.5451C17.1063 18.5423 17.1029 18.5392 17.1 18.536L20.7477 15.1163ZM18.7994 13.8379C18.0363 13.5431 17.2308 13.4375 16.4492 13.4375V18.4375C16.7979 18.4375 16.9585 18.4869 16.9974 18.5019L18.7994 13.8379ZM16.4492 13.4375C15.9715 13.4375 15.4904 13.4882 15.015 13.603L16.1882 18.4634C16.2413 18.4506 16.3254 18.4375 16.4492 18.4375V13.4375ZM14.9952 13.6078C14.5197 13.7267 14.0616 13.9096 13.6309 14.1609L16.1503 18.4798C16.1571 18.4758 16.173 18.4673 16.2079 18.4586L14.9952 13.6078ZM13.6277 14.1628C12.8745 14.6037 12.2818 15.2117 11.8322 15.9094L16.035 18.6179C16.0765 18.5536 16.1084 18.5181 16.1261 18.5007C16.143 18.484 16.1518 18.4789 16.1536 18.4778L13.6277 14.1628ZM11.8244 15.9215C11.4206 16.5561 11.1258 17.2519 10.9161 17.9797L15.7206 19.3641C15.8208 19.0163 15.9361 18.7734 16.0427 18.6059L11.8244 15.9215ZM10.9126 17.992C10.7498 18.568 10.6399 19.1737 10.5728 19.8001L15.5444 20.3327C15.5866 19.9382 15.6499 19.6143 15.7241 19.3518L10.9126 17.992ZM10.5733 19.7953C10.5074 20.3993 10.4766 21.0331 10.4766 21.6934H15.4766C15.4766 21.1869 15.5004 20.7361 15.5438 20.3375L10.5733 19.7953ZM10.4766 21.6934V24.4004H15.4766V21.6934H10.4766ZM10.4766 24.4004C10.4766 25.276 10.5216 26.0978 10.6206 26.8566L15.5786 26.2099C15.5135 25.7108 15.4766 25.1107 15.4766 24.4004H10.4766ZM10.6262 26.8969C10.7383 27.6594 10.9158 28.3931 11.1823 29.0729L15.8372 27.2474C15.7392 26.9975 15.6432 26.6466 15.573 26.1695L10.6262 26.8969ZM11.1886 29.0886C11.3783 29.563 11.6171 30.0212 11.9164 30.4465L16.0055 27.5691C15.9584 27.5023 15.8964 27.3953 15.831 27.2317L11.1886 29.0886ZM11.952 30.4959C12.2742 30.9307 12.6599 31.3239 13.1154 31.6519L16.0369 27.5942C16.0367 27.5941 16.0123 27.5771 15.9698 27.5197L11.952 30.4959ZM13.0881 31.6319C13.5707 31.9894 14.1035 32.2537 14.6715 32.4258L16.1215 27.6406C16.0879 27.6305 16.0738 27.6212 16.0642 27.6142L13.0881 31.6319ZM14.7568 32.45C15.3065 32.5955 15.867 32.6562 16.4219 32.6562V27.6562C16.2294 27.6562 16.1062 27.635 16.0362 27.6164L14.7568 32.45ZM16.4219 32.6562C17.1327 32.6562 17.8456 32.566 18.5334 32.3472L17.0174 27.5825C16.9031 27.6189 16.7136 27.6562 16.4219 27.6562V32.6562ZM18.5334 32.3472C19.2757 32.111 19.9602 31.7202 20.5393 31.1598L17.0622 27.5668C17.0631 27.566 17.0645 27.5647 17.0662 27.5634C17.0678 27.5622 17.0685 27.5618 17.0675 27.5624C17.0663 27.5632 17.0519 27.5715 17.0174 27.5825L18.5334 32.3472ZM20.5393 31.1598C21.1242 30.5938 21.5324 29.9173 21.8053 29.2047L17.1361 27.4164C17.1079 27.4899 17.084 27.5324 17.071 27.5528C17.0586 27.5724 17.0547 27.5741 17.0622 27.5668L20.5393 31.1598ZM21.8053 29.2047C22.084 28.4771 22.2196 27.6978 22.2669 26.9169L17.2761 26.6144C17.2505 27.0365 17.1855 27.2873 17.1361 27.4164L21.8053 29.2047ZM19.7715 29.2656H23.6133V24.2656H19.7715V29.2656Z" fill="#17456F" mask="url(#path-3-outside-1_82_1041)"/>
<path d="M22.2268 9.3627C23.1996 10.705 23.4142 12.5538 23.3403 14.4325C20.7292 14.0622 18.9071 13.4497 17.6459 12.1373C16.4607 10.9774 15.7149 9.07695 15.9091 6.22348C19.5374 6.8088 21.2539 8.02039 22.2268 9.3627Z" fill="white" stroke="#17456F" stroke-width="2" stroke-linecap="round" stroke-linejoin="round"/>
<path d="M24.8384 8.33333C23.5684 10.3193 22.9297 12.6436 23.0061 15C26.1709 14.8333 28.5028 14 30.1684 12.6667C31.834 11 32.8334 8.83333 33 5C28.5028 5.16667 26.3374 6.66667 24.8384 8.33333Z" fill="#9BD596" stroke="#17456F" stroke-width="3" stroke-linecap="round" stroke-linejoin="round"/>
</svg>
